<svg xmlns="http://www.w3.org/2000/svg" xmlns:xlink="http://www.w3.org/1999/xlink" width="728pt" height="44pt" viewBox="0 0 728 44"><g id="graph1" class="graph" transform="scale(1 1) rotate(0) translate(4 40)"><title>_anonymous_0</title><polygon fill="#fff" stroke="#fff" points="-4 5 -4 -40 725 -40 725 5 -4 5"/><g id="node1" class="node"><title>root</title><ellipse cx="27" cy="-18" fill="none" stroke="#000" rx="27" ry="18"/><text x="27" y="-13.8" font-family="Times,serif" font-size="14" text-anchor="middle">root</text></g><g id="node3" class="node"><title>catalog#1</title><ellipse cx="139" cy="-18" fill="none" stroke="#000" rx="48.656" ry="18"/><text x="139" y="-13.8" font-family="Times,serif" font-size="14" text-anchor="middle">catalog#1</text></g><g id="edge2" class="edge"><title>root-&gt;catalog#1</title><path fill="none" stroke="#000" d="M54.0685,-18C61.9157,-18 70.8614,-18 79.9188,-18"/><polygon fill="#000" stroke="#000" points="80.14 -21.5 90.14 -18 80.14 -14.5 80.14 -21.5"/></g><g id="node5" class="node"><title>pages#2</title><ellipse cx="267" cy="-18" fill="none" stroke="#000" rx="42.86" ry="18"/><text x="267" y="-13.8" font-family="Times,serif" font-size="14" text-anchor="middle">pages#2</text></g><g id="edge4" class="edge"><title>catalog#1-&gt;pages#2</title><path fill="none" stroke="#000" d="M187.635,-18C196.251,-18 205.274,-18 214.007,-18"/><polygon fill="#000" stroke="#000" points="214.082 -21.5 224.082 -18 214.082 -14.5 214.082 -21.5"/></g><g id="node7" class="node"><title>page#3</title><ellipse cx="385" cy="-18" fill="none" stroke="#000" rx="38.848" ry="18"/><text x="385" y="-13.8" font-family="Times,serif" font-size="14" text-anchor="middle">page#3</text></g><g id="edge6" class="edge"><title>pages#2-&gt;page#3</title><path fill="none" stroke="#000" d="M306.949,-11.5846C317.019,-11.2186 327.952,-11.1528 338.331,-11.3875"/><polygon fill="#000" stroke="#000" points="338.364 -14.89 348.475 -11.722 338.595 -7.894 338.364 -14.89"/></g><g id="edge8" class="edge"><title>page#3-&gt;pages#2</title><path fill="none" stroke="#000" d="M348.475,-24.2778C338.62,-24.7127 327.742,-24.8472 317.254,-24.6813"/><polygon fill="#000" stroke="#000" points="317.036 -21.175 306.949 -24.415 316.855 -28.172 317.036 -21.175"/></g><g id="node10" class="node"><title>content#4</title><ellipse cx="509" cy="-18" fill="none" stroke="#000" rx="49.24" ry="18"/><text x="509" y="-13.8" font-family="Times,serif" font-size="14" text-anchor="middle">content#4</text></g><g id="edge10" class="edge"><title>page#3-&gt;content#4</title><path fill="none" stroke="#000" d="M423.933,-18C432.077,-18 440.865,-18 449.583,-18"/><polygon fill="#000" stroke="#000" points="449.741 -21.5 459.741 -18 449.741 -14.5 449.741 -21.5"/></g><g id="node12" class="node"><title>Hello World!</title><ellipse cx="657" cy="-18" fill="none" stroke="#000" rx="62.581" ry="18"/><text x="657" y="-13.8" font-family="Times,serif" font-size="14" text-anchor="middle">Hello World!</text></g><g id="edge12" class="edge"><title>content#4-&gt;Hello World!</title><path fill="none" stroke="#000" d="M558.21,-18C566.449,-18 575.165,-18 583.866,-18"/><polygon fill="#000" stroke="#000" points="584.042 -21.5 594.042 -18 584.041 -14.5 584.042 -21.5"/></g></g></svg>