<svg xmlns="http://www.w3.org/2000/svg" xmlns:xlink="http://www.w3.org/1999/xlink" width="782pt" height="98pt" viewBox="0 0 782 98"><g id="graph1" class="graph" transform="scale(1 1) rotate(0) translate(4 94)"><title>_anonymous_0</title><polygon fill="#fff" stroke="#fff" points="-4 5 -4 -94 779 -94 779 5 -4 5"/><g id="node1" class="node"><title>trailer</title><ellipse cx="34" cy="-45" fill="none" stroke="#000" rx="34.181" ry="18"/><text x="34" y="-40.8" font-family="Times,serif" font-size="14" text-anchor="middle">trailer</text></g><g id="node3" class="node"><title>catalog#1</title><ellipse cx="158" cy="-72" fill="none" stroke="#000" rx="48.656" ry="18"/><text x="158" y="-67.8" font-family="Times,serif" font-size="14" text-anchor="middle">catalog#1</text></g><g id="edge2" class="edge"><title>trailer-&gt;catalog#1</title><path fill="none" stroke="green" d="M65.7858,-51.8132C77.8234,-54.4773 91.9611,-57.6061 105.465,-60.5946"/><polygon fill="green" stroke="green" points="105.102 -64.099 115.622 -62.843 106.614 -57.264 105.102 -64.099"/></g><g id="node14" class="node"><title>catalog#11</title><ellipse cx="158" cy="-18" fill="none" stroke="#000" rx="53.313" ry="18"/><text x="158" y="-13.8" font-family="Times,serif" font-size="14" text-anchor="middle">catalog#11</text></g><g id="edge14" class="edge"><title>trailer-&gt;catalog#11</title><path fill="none" stroke="red" stroke-dasharray="5 2" d="M65.7858,-38.1868C77.037,-35.6967 90.1229,-32.8007 102.811,-29.9927"/><polygon fill="red" stroke="red" points="103.851 -33.347 112.858 -27.769 102.338 -26.513 103.851 -33.347"/></g><g id="node5" class="node"><title>pages#2</title><ellipse cx="296" cy="-72" fill="none" stroke="#000" rx="42.86" ry="18"/><text x="296" y="-67.8" font-family="Times,serif" font-size="14" text-anchor="middle">pages#2</text></g><g id="edge4" class="edge"><title>catalog#1-&gt;pages#2</title><path fill="none" stroke="#000" d="M206.949,-72C218.542,-72 230.989,-72 242.768,-72"/><polygon fill="#000" stroke="#000" points="242.909 -75.5 252.909 -72 242.909 -68.5 242.909 -75.5"/></g><g id="node7" class="node"><title>page#3</title><ellipse cx="424" cy="-72" fill="none" stroke="#000" rx="38.848" ry="18"/><text x="424" y="-67.8" font-family="Times,serif" font-size="14" text-anchor="middle">page#3</text></g><g id="edge6" class="edge"><title>pages#2-&gt;page#3</title><path fill="none" stroke="#000" d="M336.177,-65.6987C349.187,-65.1854 363.787,-65.1125 377.248,-65.4801"/><polygon fill="#000" stroke="#000" points="377.154 -68.979 387.275 -65.847 377.41 -61.983 377.154 -68.979"/></g><g id="edge8" class="edge"><title>page#3-&gt;pages#2</title><path fill="none" stroke="#000" d="M387.275,-78.153C374.571,-78.7451 360.034,-78.8968 346.39,-78.608"/><polygon fill="#000" stroke="#000" points="346.277 -75.103 336.177 -78.301 346.067 -82.1 346.277 -75.103"/></g><g id="node10" class="node"><title>content#4</title><ellipse cx="558" cy="-72" fill="none" stroke="#000" rx="49.24" ry="18"/><text x="558" y="-67.8" font-family="Times,serif" font-size="14" text-anchor="middle">content#4</text></g><g id="edge10" class="edge"><title>page#3-&gt;content#4</title><path fill="none" stroke="#000" d="M463.18,-72C474.134,-72 486.339,-72 498.227,-72"/><polygon fill="#000" stroke="#000" points="498.554 -75.5 508.554 -72 498.554 -68.5 498.554 -75.5"/></g><g id="node12" class="node"><title>Hello World!</title><ellipse cx="711" cy="-72" fill="none" stroke="#000" rx="62.581" ry="18"/><text x="711" y="-67.8" font-family="Times,serif" font-size="14" text-anchor="middle">Hello World!</text></g><g id="edge12" class="edge"><title>content#4-&gt;Hello World!</title><path fill="none" stroke="#000" d="M607.193,-72C617.069,-72 627.666,-72 638.168,-72"/><polygon fill="#000" stroke="#000" points="638.182 -75.5 648.182 -72 638.182 -68.5 638.182 -75.5"/></g><g id="node16" class="node"><title>pages#12</title><ellipse cx="296" cy="-18" fill="none" stroke="#000" rx="47.516" ry="18"/><text x="296" y="-13.8" font-family="Times,serif" font-size="14" text-anchor="middle">pages#12</text></g><g id="edge16" class="edge"><title>catalog#11-&gt;pages#12</title><path fill="none" stroke="#000" d="M211.581,-18C220.284,-18 229.344,-18 238.146,-18"/><polygon fill="#000" stroke="#000" points="238.326 -21.5 248.326 -18 238.326 -14.5 238.326 -21.5"/></g><g id="node18" class="node"><title>page#13</title><ellipse cx="424" cy="-18" fill="none" stroke="#000" rx="43.506" ry="18"/><text x="424" y="-13.8" font-family="Times,serif" font-size="14" text-anchor="middle">page#13</text></g><g id="edge18" class="edge"><title>pages#12-&gt;page#13</title><path fill="none" stroke="#000" d="M340.362,-11.5503C350.828,-11.2203 362.096,-11.1623 372.844,-11.3763"/><polygon fill="#000" stroke="#000" points="372.85 -14.878 382.946 -11.665 373.05 -7.881 372.85 -14.878"/></g><g id="edge20" class="edge"><title>page#13-&gt;pages#12</title><path fill="none" stroke="#000" d="M382.946,-24.3352C372.666,-24.7231 361.443,-24.8389 350.599,-24.6828"/><polygon fill="#000" stroke="#000" points="350.439 -21.178 340.362 -24.45 350.28 -28.177 350.439 -21.178"/></g><g id="node21" class="node"><title>content#14</title><ellipse cx="558" cy="-18" fill="none" stroke="#000" rx="53.896" ry="18"/><text x="558" y="-13.8" font-family="Times,serif" font-size="14" text-anchor="middle">content#14</text></g><g id="edge22" class="edge"><title>page#13-&gt;content#14</title><path fill="none" stroke="#000" d="M467.857,-18C476.081,-18 484.854,-18 493.568,-18"/><polygon fill="#000" stroke="#000" points="493.733 -21.5 503.733 -18 493.733 -14.5 493.733 -21.5"/></g><g id="node23" class="node"><title>Bye World!</title><ellipse cx="711" cy="-18" fill="none" stroke="#000" rx="56.783" ry="18"/><text x="711" y="-13.8" font-family="Times,serif" font-size="14" text-anchor="middle">Bye World!</text></g><g id="edge24" class="edge"><title>content#14-&gt;Bye World!</title><path fill="none" stroke="#000" d="M612.237,-18C622.468,-18 633.298,-18 643.878,-18"/><polygon fill="#000" stroke="#000" points="643.918 -21.5 653.918 -18 643.918 -14.5 643.918 -21.5"/></g></g></svg>